<?xml version="1.0" standalone="no"?>
<!DOCTYPE svg PUBLIC "-//W3C//DTD SVG 20010904//EN"
 "http://www.w3.org/TR/2001/REC-SVG-20010904/DTD/svg10.dtd">
<svg version="1.0" xmlns="http://www.w3.org/2000/svg"
 width="1064.000000pt" height="1064.000000pt" viewBox="0 0 1064.000000 1064.000000"
 preserveAspectRatio="xMidYMid meet">
<metadata>
Created by potrace 1.11, written by Peter Selinger 2001-2013
</metadata>
<g transform="translate(0.000000,1064.000000) scale(0.100000,-0.100000)"
fill="#000000" stroke="none">
<path d="M2839 8670 c-1 -19 -2 -48 -4 -65 -1 -16 -5 -88 -9 -160 -11 -199
-14 -229 -30 -322 -3 -18 -8 -46 -11 -62 -9 -54 -46 -166 -67 -206 -32 -58
-93 -113 -135 -121 -20 -4 -57 -2 -83 4 -51 12 -170 77 -170 92 0 6 -6 10 -13
10 -21 0 -163 143 -267 269 -19 23 -46 54 -58 69 -13 15 -32 39 -41 54 -25 40
-112 138 -121 138 -19 0 11 -144 50 -235 9 -23 39 -135 46 -173 3 -14 7 -29
10 -34 3 -5 7 -25 9 -46 3 -20 7 -48 10 -62 12 -57 17 -121 17 -216 0 -101
-15 -158 -54 -204 -103 -122 -340 -59 -718 189 -47 31 -86 59 -88 64 -2 4 -8
7 -14 7 -5 0 -24 11 -41 23 -18 13 -49 34 -69 46 l-37 22 12 -33 c12 -33 74
-133 99 -159 7 -8 37 -52 67 -99 30 -47 62 -97 72 -111 18 -27 98 -184 100
-196 2 -14 11 -37 20 -58 15 -33 35 -157 33 -202 -3 -52 -25 -96 -64 -123 -16
-12 -30 -18 -30 -14 0 3 -7 1 -15 -6 -20 -17 -74 -24 -175 -24 -81 0 -195 10
-222 19 -7 2 -29 6 -48 9 -49 8 -169 39 -275 71 -149 46 -180 53 -189 45 -14
-14 -6 -22 193 -178 18 -15 45 -37 59 -49 14 -13 28 -23 31 -23 7 0 202 -190
244 -237 15 -18 27 -37 27 -42 0 -6 4 -11 8 -11 15 0 70 -115 76 -159 11 -82
-48 -163 -151 -207 -47 -20 -194 -62 -244 -69 -24 -3 -57 -9 -74 -12 -68 -12
-237 -23 -387 -25 -110 -1 -116 -2 -105 -19 12 -19 31 -28 242 -104 120 -43
259 -103 295 -125 8 -6 22 -13 30 -17 36 -16 159 -104 194 -139 40 -40 65 -87
73 -137 10 -65 -73 -173 -196 -252 -74 -47 -333 -175 -355 -175 -4 0 -22 -6
-39 -14 -47 -20 -121 -46 -147 -51 -40 -8 -95 -40 -98 -57 -3 -15 12 -17 155
-18 87 0 175 -2 195 -4 75 -8 164 -18 183 -22 52 -11 82 -16 110 -18 17 -2 37
-6 45 -8 103 -33 133 -46 182 -77 100 -63 122 -144 67 -254 -56 -114 -165
-239 -329 -377 -36 -30 -66 -58 -68 -62 -2 -5 -10 -8 -18 -8 -8 0 -14 -4 -14
-8 0 -5 -24 -25 -53 -45 -67 -48 -145 -116 -132 -118 13 -2 65 2 85 6 42 9 76
19 85 25 9 7 66 22 80 21 2 0 17 6 32 14 14 8 30 12 35 9 4 -3 14 -2 20 3 14
8 16 9 63 18 17 3 38 8 47 11 52 16 130 24 263 30 181 7 259 -20 302 -105 41
-81 20 -192 -74 -393 -25 -54 -50 -98 -55 -98 -4 0 -8 -5 -8 -12 0 -14 -77
-139 -143 -231 -26 -38 -57 -86 -68 -107 -20 -38 -32 -80 -23 -80 5 0 151 106
185 134 9 7 20 15 25 17 5 2 47 29 93 59 47 30 87 53 89 52 3 -2 8 1 11 6 11
16 179 93 278 127 65 22 110 31 140 29 51 -3 133 -47 140 -75 3 -11 9 -19 14
-19 5 0 8 -3 7 -8 0 -4 2 -15 5 -24 17 -44 20 -54 23 -73 5 -31 5 -147 0 -180
-5 -37 -16 -100 -22 -129 -2 -11 -7 -37 -10 -56 -3 -19 -8 -44 -12 -55 -3 -11
-6 -22 -7 -25 -12 -62 -20 -96 -38 -150 -12 -36 -22 -67 -22 -70 -1 -3 -5 -14
-9 -25 -22 -57 -26 -73 -30 -103 -2 -18 0 -35 4 -37 10 -6 56 38 95 90 16 22
31 42 34 45 4 3 33 41 66 84 33 44 69 89 80 101 11 11 36 38 56 60 52 58 169
163 215 192 28 18 113 63 119 63 3 0 6 1 8 1 1 1 18 3 37 4 53 5 95 -12 134
-55 34 -38 86 -137 86 -165 0 -7 4 -16 9 -19 5 -3 11 -18 14 -33 3 -16 7 -38
10 -49 3 -12 8 -37 11 -55 3 -19 8 -45 11 -59 2 -14 7 -74 9 -135 7 -141 15
-242 23 -280 3 -16 6 -47 7 -67 0 -21 3 -38 6 -38 11 0 77 151 86 195 4 19 86
230 93 240 4 6 14 26 21 45 8 19 29 59 47 88 18 29 33 55 33 57 0 3 10 17 23
32 129 155 194 191 286 159 113 -40 247 -245 361 -551 28 -77 57 -153 63 -170
7 -16 12 -32 13 -35 7 -40 46 -81 58 -62 2 4 4 64 4 135 1 70 1 128 2 130 0 1
3 45 5 97 2 52 6 113 9 135 3 22 8 54 10 72 3 18 7 41 11 52 3 11 7 28 9 38 9
45 50 152 73 192 45 77 98 113 166 113 42 -1 161 -55 217 -99 94 -74 307 -306
385 -419 11 -16 41 -51 68 -79 l47 -50 -5 41 c-2 23 -9 52 -14 65 -5 13 -9 26
-9 29 0 3 -7 30 -17 60 -9 30 -18 66 -21 80 -2 14 -9 36 -14 50 -5 14 -14 52
-20 85 -6 33 -14 67 -17 75 -15 38 -26 141 -28 265 -2 128 15 188 67 236 18
16 35 29 38 30 3 0 14 3 25 6 33 8 128 9 155 1 123 -36 233 -83 315 -134 22
-14 48 -27 58 -31 9 -3 17 -9 17 -14 0 -5 7 -9 15 -9 8 0 15 -4 15 -10 0 -5 5
-10 11 -10 6 0 40 -20 76 -45 35 -25 68 -45 73 -45 4 0 10 -4 12 -8 4 -11 128
-85 133 -80 2 2 -2 16 -10 31 -8 15 -11 27 -7 27 4 0 2 4 -3 8 -18 12 -75 95
-75 108 0 7 -4 14 -9 16 -17 6 -167 248 -201 325 -12 26 -29 62 -37 79 -30 66
-51 155 -51 222 0 62 3 75 29 110 44 60 110 85 232 87 151 2 329 -27 522 -86
143 -43 165 -49 210 -48 l40 0 -25 18 c-14 11 -36 29 -50 41 -14 12 -40 34
-59 48 -238 187 -334 275 -414 380 -38 50 -54 77 -98 164 -13 25 -11 105 2
131 16 33 78 84 129 108 51 25 136 51 162 51 10 -1 20 3 23 9 4 5 20 -4 36
-19 34 -31 147 -79 206 -86 233 -29 473 61 669 252 27 26 27 25 -5 -120 -25
-115 -20 -124 75 -119 38 1 123 3 189 4 l119 2 13 55 c7 30 14 66 17 80 3 14
7 36 10 50 9 42 58 284 61 305 2 11 6 31 10 45 3 14 8 40 11 59 3 19 10 46 16
60 5 14 9 27 8 29 -3 5 22 118 42 191 32 118 85 197 159 236 48 26 123 -3 135
-51 10 -37 -3 -196 -22 -284 -8 -41 -17 -83 -19 -93 -2 -10 -6 -26 -9 -35 -3
-9 -7 -28 -10 -42 -2 -14 -11 -52 -19 -85 -26 -100 -29 -117 -32 -204 -4 -130
39 -224 131 -286 170 -113 405 -52 554 144 l26 33 26 -48 c67 -124 188 -181
383 -181 55 0 109 3 121 7 11 5 34 10 50 13 99 16 308 144 402 246 l24 26 -7
-35 c-9 -47 -14 -72 -31 -153 -8 -37 -14 -73 -14 -78 0 -6 62 -10 153 -10 83
-1 167 -1 185 -1 37 -1 70 25 76 57 3 11 9 40 15 65 5 25 12 57 15 73 2 15 7
35 10 45 3 9 7 28 10 42 2 14 18 88 34 165 17 77 33 151 36 165 3 14 7 36 10
50 3 14 8 36 11 50 3 14 7 36 10 50 3 14 7 36 10 50 3 14 7 36 10 50 20 105
27 138 37 160 18 39 88 99 122 105 17 3 43 7 58 9 26 4 49 -11 55 -38 23 -103
26 -107 51 -117 140 -53 286 62 268 212 -14 117 -101 191 -215 183 -32 -2 -80
-14 -107 -25 -49 -22 -166 -97 -172 -111 -9 -19 -24 -6 -18 16 3 12 8 41 11
62 3 21 8 44 10 51 3 9 -32 13 -133 15 -204 4 -259 0 -267 -20 -6 -14 -19 -72
-71 -317 -7 -37 -14 -70 -20 -105 -4 -19 -9 -44 -11 -55 -6 -25 -22 -110 -29
-150 -3 -16 -7 -41 -10 -55 -3 -14 -6 -34 -8 -45 -19 -128 -102 -259 -192
-305 -16 -8 -31 -18 -34 -21 -8 -9 -120 -59 -120 -53 0 3 -8 0 -18 -5 -26 -14
-99 -25 -169 -24 -72 0 -118 22 -147 72 -20 35 -48 161 -35 161 5 0 6 7 3 15
-13 33 40 81 101 92 81 14 215 68 289 116 30 19 120 109 147 147 94 130 131
329 80 428 -30 58 -49 79 -97 108 -48 28 -100 38 -204 37 -213 -2 -384 -100
-522 -299 -31 -44 -99 -166 -103 -184 -1 -3 -9 -22 -18 -42 -27 -63 -68 -244
-73 -320 -7 -129 -26 -187 -78 -245 -64 -70 -157 -75 -212 -10 -32 38 -32 43
36 337 56 241 56 240 73 345 11 63 8 149 -6 210 -8 34 -50 99 -81 125 -65 55
-196 81 -298 59 -69 -16 -161 -66 -216 -119 -14 -13 -15 -12 -8 10 3 14 11 52
17 84 5 33 12 62 14 65 1 3 6 24 9 46 4 22 9 48 12 58 3 11 7 29 9 40 2 12 6
33 9 47 4 14 9 39 11 55 3 17 13 57 21 90 23 87 27 108 26 128 -1 21 -21 49
-31 43 -3 -2 -28 -7 -56 -10 -27 -3 -61 -8 -75 -10 -14 -3 -47 -8 -75 -12 -27
-3 -59 -8 -70 -9 -11 -2 -29 -4 -41 -4 -34 -2 -62 -37 -73 -93 -20 -95 -69
-325 -75 -348 -2 -8 -7 -35 -12 -60 -9 -51 -11 -59 -14 -62 -1 -2 -3 -12 -5
-23 -5 -33 -16 -96 -20 -114 -3 -9 -9 -34 -14 -56 -5 -22 -17 -76 -26 -120 -9
-44 -19 -89 -21 -100 -3 -11 -7 -31 -10 -45 -2 -14 -12 -61 -21 -105 -9 -44
-17 -93 -19 -110 -1 -16 -3 -30 -4 -30 -1 0 -3 -9 -5 -21 -7 -32 -41 -109 -62
-135 -76 -98 -198 -184 -313 -220 -197 -61 -326 14 -332 193 -2 48 11 146 29
233 2 11 6 34 9 52 13 93 141 413 165 413 5 0 9 5 9 12 0 19 87 96 112 100 92
15 121 -67 79 -221 -14 -50 -10 -57 44 -69 145 -31 237 124 174 292 -28 76
-90 131 -167 147 -62 13 -165 15 -224 5 -81 -13 -210 -67 -281 -118 -22 -16
-36 -18 -65 -13 -61 12 -75 14 -122 19 -25 3 -56 8 -70 11 -54 10 -126 27
-140 32 -8 3 -24 8 -35 10 -11 2 -21 8 -23 13 -2 6 -8 10 -14 10 -6 0 -30 16
-54 36 -48 38 -75 104 -67 159 6 37 53 145 64 145 4 0 10 8 13 18 19 56 237
267 411 396 120 89 128 97 142 128 13 29 12 29 -37 11 -18 -7 -25 -9 -65 -18
-16 -3 -34 -7 -40 -8 -5 -2 -14 -5 -20 -8 -8 -5 -197 -57 -230 -63 -5 -1 -19
-5 -30 -9 -11 -3 -36 -8 -55 -11 -19 -3 -44 -7 -55 -10 -85 -17 -292 -24 -337
-11 -90 25 -158 103 -158 182 0 27 37 169 48 188 4 6 7 12 8 15 5 24 104 232
115 240 3 3 12 16 19 30 7 14 57 91 111 173 98 146 110 171 87 180 -11 3 -69
-32 -88 -54 -3 -3 -41 -30 -85 -59 -44 -30 -82 -57 -85 -60 -7 -7 -96 -60
-189 -112 -36 -20 -193 -87 -220 -94 -9 -2 -34 -8 -56 -13 -168 -43 -259 34
-270 228 -2 39 -6 75 -10 81 -3 5 -3 10 2 10 4 0 8 17 9 38 1 43 11 120 24
177 5 22 11 54 14 70 3 17 13 55 21 85 9 30 18 66 21 80 3 14 8 34 11 45 4 11
8 23 9 28 1 4 3 9 4 12 1 3 3 8 4 13 1 4 8 31 15 60 7 29 10 64 7 78 -6 23
-15 15 -105 -104 -143 -189 -174 -225 -272 -322 -217 -214 -362 -255 -470
-132 -28 31 -68 106 -75 137 -1 6 -9 37 -18 70 -20 79 -29 124 -42 225 -2 19
-6 129 -9 245 -3 115 -8 211 -10 213 -11 11 -44 -22 -50 -50 -4 -18 -11 -39
-15 -48 -5 -8 -21 -51 -36 -95 -15 -44 -30 -84 -34 -90 -10 -15 -42 -103 -40
-111 1 -4 -2 -10 -7 -13 -5 -3 -17 -24 -27 -46 -66 -146 -114 -222 -188 -296
-120 -120 -198 -116 -320 13 -38 39 -68 77 -68 85 0 7 -3 13 -7 13 -10 0 -36
45 -86 144 -42 87 -55 118 -128 310 -27 71 -58 143 -69 160 l-20 31 -1 -35z
m6454 -2818 c20 -17 23 -101 6 -167 -5 -22 -11 -44 -12 -50 -2 -5 -15 -36 -29
-67 -51 -111 -211 -237 -310 -245 -35 -3 -38 -1 -34 19 17 84 72 242 116 333
56 116 91 159 157 190 50 24 65 22 106 -13z"/>
</g>
</svg>
